#!OML:ASF F:\VICON\USERDATA\INSTALL\rory3\rory3.ASF
:FULLY-SPECIFIED
:DEGREES
3448
root 0.0839286 16.8493 -0.315602 -8.98541 9.87157 -5.51424
lowerback 2.5329 2.78124 -3.285
upperback 5.80274 3.70577 1.33758
thorax 4.28569 1.68901 3.25795
lowerneck -4.25642 -15.3925 -20.6913
upperneck 23.7118 -25.1213 21.4369
head 14.6157 -11.5082 7.51582
rclavicle 5.75482e-014 -7.95139e-015
rhumerus 58.3578 -13.939 -78.3329
rradius 85.68
rwrist 47.0582
rhand 51.3835 12.6657
rfingers 7.12502
rthumb 70.8299 19.7787
lclavicle 5.75482e-014 -7.95139e-015
lhumerus -15.7637 9.86337 84.6619
lradius 9.39718
lwrist -18.4306
lhand 2.19598 31.3672
lfingers 7.12502
lthumb 27.692 59.3485
rfemur 3.87281 -1.02742 24.3577
rtibia 24.8339
rfoot -21.011 -10.8901
rtoes -21.3153
lfemur -5.29135 -11.9135 -13.4016
ltibia 36.4545
lfoot -21.9417 -3.17256
ltoes -17.7299
3449
root 0.0829661 16.8484 -0.311698 -9.02714 9.818 -5.59273
lowerback 2.51498 2.7535 -3.28496
upperback 5.81292 3.66652 1.42587
thorax 4.30414 1.66679 3.35069
lowerneck -4.30279 -15.3588 -20.7697
upperneck 23.7879 -25.0598 21.4059
head 14.6491 -11.4852 7.53207
rclavicle -3.27001e-014 9.54166e-015
rhumerus 58.3336 -13.8554 -78.1812
rradius 85.6316
rwrist 47.1376
rhand 51.1331 13.0429
rfingers 7.12502
rthumb 70.6752 19.5922
lclavicle -3.27001e-014 9.54166e-015
lhumerus -15.8468 10.1426 84.6679
lradius 9.48539
lwrist -18.613
lhand 2.26398 31.3148
lfingers 7.12502
lthumb 27.757 59.2855
rfemur 3.88465 -1.04814 24.4454
rtibia 24.8904
rfoot -21.0299 -10.868
rtoes -21.0356
lfemur -5.22564 -11.9136 -13.3192
ltibia 36.4379
lfoot -22.0321 -3.10044
ltoes -17.7113
3450
root 0.0824283 16.8488 -0.308534 -9.03031 9.78965 -5.55014
lowerback 2.51027 2.7672 -3.28967
upperback 5.82337 3.68609 1.3977
thorax 4.31772 1.67656 3.32484
lowerneck -4.34146 -15.357 -20.7468
upperneck 23.7968 -25.0823 21.4802
head 14.6805 -11.4846 7.55317
rclavicle -4.96962e-016 0
rhumerus 58.2703 -13.943 -78.1006
rradius 85.5994
rwrist 47.2302
rhand 51.0336 13.0782
rfingers 7.12502
rthumb 70.6131 19.4059
lclavicle -4.96962e-016 0
lhumerus -15.8609 10.2401 84.5966
lradius 9.58196
lwrist -18.7655
lhand 2.45434 31.2889
lfingers 7.12502
lthumb 27.939 59.2302
rfemur 3.90356 -1.02465 24.4046
rtibia 24.9328
rfoot -21.1015 -10.8007
rtoes -20.8311
lfemur -5.18524 -11.9207 -13.3675
ltibia 36.4296
lfoot -22.063 -3.18646
ltoes -16.9278
3451
root 0.0805058 16.8503 -0.305292 -9.01427 9.74146 -5.42276
lowerback 2.48054 2.74895 -3.47679
upperback 5.83009 3.66288 1.41502
thorax 4.33227 1.65603 3.44906
lowerneck -4.38192 -15.3283 -20.8145
upperneck 23.8614 -25.0424 21.4891
head 14.7206 -11.4682 7.57955
rclavicle 2.8128e-014 -2.38542e-014
rhumerus 58.2221 -13.8626 -77.9553
rradius 85.6013
rwrist 47.2746
rhand 50.9585 13.1437
rfingers 7.12502
rthumb 70.5661 19.3052
lclavicle 2.8128e-014 -2.38542e-014
lhumerus -15.9316 10.5142 84.5817
lradius 9.66834
lwrist -18.9672
lhand 2.56861 31.1144
lfingers 7.12502
lthumb 28.0483 59.0379
rfemur 3.89672 -0.981524 24.2761
rtibia 24.9942
rfoot -21.1731 -10.7348
rtoes -20.6794
lfemur -5.1312 -11.8923 -13.5045
ltibia 36.4073
lfoot -22.0891 -3.09173
ltoes -17.3714
3452
root 0.0785989 16.8485 -0.303836 -9.00204 9.71654 -5.4389
lowerback 2.45708 2.7372 -3.47804
upperback 5.82383 3.64721 1.43356
thorax 4.33903 1.64758 3.47001
lowerneck -4.34965 -15.3109 -20.8248
upperneck 23.8548 -25.0178 21.4882
head 14.705 -11.4614 7.58961
rclavicle -6.49032e-014 2.46493e-014
rhumerus 58.1527 -13.8663 -77.7644
rradius 85.5876
rwrist 47.1289
rhand 50.922 12.8767
rfingers 7.12502
rthumb 70.5432 18.9577
lclavicle -6.49032e-014 2.46493e-014
lhumerus -15.9535 10.7011 84.5677
lradius 9.72641
lwrist -19.2363
lhand 2.45547 31.2952
lfingers 7.12502
lthumb 27.9401 59.2363
rfemur 3.85672 -0.977937 24.305
rtibia 25.0398
rfoot -21.1587 -10.7655
rtoes -20.873
lfemur -5.1416 -11.8523 -13.4626
ltibia 36.4011
lfoot -22.088 -3.11944
ltoes -17.4459
3453
root 0.077493 16.8479 -0.300644 -8.96589 9.65634 -5.45413
lowerback 2.39296 2.76449 -3.43721
upperback 5.80853 3.68578 1.42312
thorax 4.35881 1.66848 3.43951
lowerneck -4.2651 -15.2957 -20.8654
upperneck 23.8282 -25.0406 21.6142
head 14.7157 -11.4738 7.65043
rclavicle 2.19657e-014 -3.18055e-015
rhumerus 58.0593 -13.9555 -77.6323
rradius 85.5253
rwrist 46.9792
rhand 50.742 12.6774
rfingers 7.12502
rthumb 70.4296 18.3644
lclavicle 2.19657e-014 -3.18055e-015
lhumerus -16.0503 10.7665 84.525
lradius 9.98184
lwrist -19.5003
lhand 2.48069 31.8734
lfingers 7.12502
lthumb 27.9642 59.8106
rfemur 3.7914 -0.920037 24.3425
rtibia 25.0874
rfoot -21.219 -10.7727
rtoes -20.8545
lfemur -5.15357 -11.8047 -13.4275
ltibia 36.3854
lfoot -22.1056 -3.0244
ltoes -17.7581
3454
root 0.0756609 16.8485 -0.296419 -8.96036 9.59711 -5.46638
lowerback 2.34956 2.74973 -3.46352
upperback 5.82018 3.66689 1.45029
thorax 4.39409 1.65619 3.48519
lowerneck -4.30837 -15.2676 -20.9542
upperneck 23.8839 -25.0228 21.698
head 14.779 -11.4639 7.70676
rclavicle 5.62561e-014 -2.38542e-014
rhumerus 58.0933 -13.926 -77.624
rradius 85.4759
rwrist 46.8939
rhand 50.5999 12.6191
rfingers 7.12502
rthumb 70.3393 17.9983
lclavicle 5.62561e-014 -2.38542e-014
lhumerus -16.1127 10.9899 84.4828
lradius 10.1962
lwrist -19.7268
lhand 2.72683 32.3376
lfingers 7.12502
lthumb 28.1995 60.2362
rfemur 3.72966 -0.893425 24.3824
rtibia 25.1214
rfoot -21.1958 -10.8607
rtoes -21.0282
lfemur -5.12911 -11.7931 -13.4046
ltibia 36.3884
lfoot -22.0739 -3.02216
ltoes -17.2714
3455
root 0.0751684 16.8484 -0.29283 -8.98362 9.56165 -5.36741
lowerback 2.38397 2.70983 -3.59624
upperback 5.84366 3.61263 1.47172
thorax 4.39561 1.62247 3.5803
lowerneck -4.49878 -15.2775 -20.926
upperneck 24.0174 -24.9792 21.5126
head 14.8233 -11.4371 7.62609
rclavicle -3.80176e-014 -1.43125e-014
rhumerus 58.1499 -13.8189 -77.5371
rradius 85.4426
rwrist 46.8174
rhand 50.6932 12.7017
rfingers 7.12502
rthumb 70.3987 18.2826
lclavicle -3.80176e-014 -1.43125e-014
lhumerus -16.0604 11.3424 84.5362
lradius 10.1551
lwrist -19.9289
lhand 2.80175 32.5716
lfingers 7.12502
lthumb 28.2711 60.4583
rfemur 3.75277 -0.905545 24.2731
rtibia 25.149
rfoot -21.2617 -10.848
rtoes -20.9987
lfemur -5.04299 -11.785 -13.5281
ltibia 36.385
lfoot -21.9687 -3.00388
ltoes -17.4191
3456
root 0.075009 16.8451 -0.289987 -8.99413 9.55069 -5.26117
lowerback 2.41297 2.67365 -3.71602
upperback 5.86499 3.56419 1.46895
thorax 4.39986 1.59271 3.6434
lowerneck -4.67983 -15.3041 -20.7696
upperneck 24.1051 -24.9506 21.2775
head 14.8166 -11.4106 7.49774
rclavicle 7.10655e-015 -6.36111e-015
rhumerus 58.1936 -13.7437 -77.5032
rradius 85.4487
rwrist 46.7267
rhand 51.0815 12.4918
rfingers 7.12502
rthumb 70.643 18.9259
lclavicle 7.10655e-015 -6.36111e-015
lhumerus -15.999 11.641 84.5458
lradius 10.0419
lwrist -20.1218
lhand 2.60718 32.4358
lfingers 7.12502
lthumb 28.0851 60.3532
rfemur 3.81923 -0.934338 24.1409
rtibia 25.1901
rfoot -21.2521 -10.7893
rtoes -21.1969
lfemur -4.98009 -11.7915 -13.661
ltibia 36.3786
lfoot -21.9641 -2.95759
ltoes -17.9175
3457
root 0.0752992 16.8425 -0.288663 -8.99802 9.52139 -5.29583
lowerback 2.43713 2.66839 -3.61577
upperback 5.85549 3.55684 1.42903
thorax 4.38437 1.59482 3.54427
lowerneck -4.71167 -15.3318 -20.5705
upperneck 24.1043 -24.9828 21.1839
head 14.7782 -11.4112 7.41544
rclavicle -4.01048e-014 4.77083e-015
rhumerus 58.1783 -13.7912 -77.5505
rradius 85.4335
rwrist 46.6546
rhand 51.658 11.9473
rfingers 7.12502
rthumb 70.9973 19.6891
lclavicle -4.01048e-014 4.77083e-015
lhumerus -15.9829 11.7655 84.4478
lradius 10.0411
lwrist -20.3466
lhand 2.61832 32.2701
lfingers 7.12502
lthumb 28.0958 60.1857
rfemur 3.80914 -0.932554 24.1704
rtibia 25.2479
rfoot -21.2504 -10.7926
rtoes -21.5386
lfemur -4.97252 -11.7693 -13.619
ltibia 36.3725
lfoot -22.0478 -2.94108
ltoes -17.6953
